<svg id="Capa_1" enable-background="new 0 0 512 512" height="512" viewBox="0 0 512 512" width="512" xmlns="http://www.w3.org/2000/svg"><g><g><path d="m231.103 337.512 132.356-76.767c15.495-9.396 35.566-5.746 46.761 8.503 10.779 13.719 10.112 33.208-1.58 46.158l-147.095 63.137z" fill="#eaac9d"/><path d="m285.93 340.761 132.356-76.767c15.495-9.396 35.566-5.746 46.761 8.503 10.779 13.719 10.112 33.208-1.58 46.158l-147.095 63.137z" fill="#ffcbbe"/><path d="m512 308.594c0 8.617-3.095 17.214-9.234 24.01l-24.468 27.095-50.21 55.613c-8.358 9.254-19.742 15.204-32.1 16.776l-226.709 28.876-91.106-67.513c-.438-.726-4.955-99.494-4.955-99.494l53.314-40.946c24.856-19.085 52.876-33.483 82.688-42.578 1.264-.388 2.527-.766 3.791-1.124 9.045-2.607 18.259-4.736 27.582-6.358l9.234-1.612c19.085-3.313 37.354 9.144 41.224 28.12.488 2.388.726 4.786.726 7.164 0 11.403-5.463 22.299-14.955 29.105l-58.837 42.15 157.723 19.712 81.872-49.642c15.493-9.393 35.563-5.741 46.757 8.508 5.126 6.516 7.663 14.337 7.663 22.138z" fill="#ffddce"/><path d="m478.298 359.699-50.21 55.613c-8.358 9.254-19.742 15.204-32.1 16.776l-226.709 28.876-49.529-36.703-8.392-63.995c68.518 115.912 339.487 29.841 366.94-.567z" fill="#ffcbbe"/><path d="" fill="#ffcbbe"/><path d="m169.279 460.961-73.215 46.801-45.688-79.416-50.376-87.586 73.215-46.801 55.001 95.611z" fill="#9dc6fb"/><path d="m169.279 460.961-73.215 46.801-45.689-79.417c52.405 4.11 77.84-38.776 77.84-38.776z" fill="#80b4fb"/><circle cx="112.138" cy="450.898" fill="#f9f6f6" r="15.759"/></g><g><path d="m381.032 96.358-16.642 16.224c-5.124 4.994-7.464 12.186-6.253 19.238l3.928 22.905c3.045 17.755-15.587 31.294-31.534 22.91l-20.57-10.813c-6.331-3.333-13.895-3.333-20.225 0l-20.57 10.813c-15.947 8.384-34.58-5.156-31.534-22.91l3.928-22.905c1.212-7.052-1.128-14.245-6.253-19.238l-16.642-16.224c-12.897-12.573-5.777-34.475 12.045-37.066l22.999-3.343c7.078-1.029 13.2-5.474 16.365-11.889l10.285-20.842c3.986-8.076 11.737-12.113 19.489-12.113s15.503 4.038 19.489 12.113l10.285 20.842c3.165 6.414 9.287 10.86 16.365 11.889l22.999 3.343c17.824 2.591 24.943 24.493 12.046 37.066z" fill="#f1e64d"/><path d="m247.117 99.179c6.806 17.3 16.898 28.87 9.81 45.204-7.088 16.339-3.505 37.797 32.809 22.44l-20.57 10.813c-15.947 8.384-34.58-5.156-31.534-22.91l3.928-22.905c1.212-7.052-1.128-14.245-6.253-19.238l-16.642-16.224c-12.897-12.573-5.777-34.475 12.045-37.066l22.999-3.343c7.078-1.029 13.2-5.474 16.365-11.889l10.285-20.842c3.986-8.076 11.737-12.113 19.489-12.113-15.294 0-8.937 44.107-30.834 55.677-21.897 11.575-28.703 15.096-21.897 32.396z" fill="#ffc250"/></g><g fill="#f7f493"><path d="m180.808 37.685-1.038 1.797c-3.659 6.338-11.602 8.761-18.175 5.544l-20.221-9.895c-7.243-3.544-9.969-12.482-5.937-19.465l2.578-4.465c4.032-6.983 13.134-9.091 19.825-4.591l18.68 12.564c6.074 4.084 7.947 12.173 4.288 18.511z"/><path d="m418.89 172.717 1.038-1.797c3.659-6.338 11.602-8.761 18.175-5.544l20.22 9.895c7.243 3.544 9.969 12.482 5.937 19.465l-2.578 4.465c-4.032 6.983-13.134 9.091-19.825 4.591l-18.68-12.564c-6.074-4.084-7.947-12.173-4.287-18.511z"/><path d="m162.439 104.163v2.075c0 7.319-5.667 13.388-12.968 13.889l-22.459 1.541c-8.045.552-14.874-5.825-14.874-13.889v-5.156c0-8.063 6.829-14.44 14.874-13.889l22.459 1.541c7.301.501 12.968 6.57 12.968 13.888z"/><path d="m437.258 106.238v-2.075c0-7.319 5.667-13.388 12.968-13.889l22.459-1.541c8.045-.552 14.874 5.825 14.874 13.889v5.156c0 8.063-6.829 14.44-14.874 13.889l-22.459-1.541c-7.301-.5-12.968-6.569-12.968-13.888z"/><path d="m179.77 170.919 1.038 1.797c3.659 6.338 1.786 14.428-4.287 18.512l-18.68 12.564c-6.691 4.5-15.794 2.392-19.825-4.591l-2.578-4.465c-4.032-6.983-1.306-15.92 5.937-19.465l20.221-9.895c6.573-3.217 14.515-.795 18.174 5.543z"/><path d="m419.927 39.482-1.038-1.797c-3.659-6.338-1.786-14.428 4.287-18.512l18.68-12.564c6.691-4.5 15.794-2.392 19.825 4.591l2.578 4.465c4.032 6.983 1.306 15.92-5.937 19.465l-20.22 9.895c-6.573 3.218-14.516.796-18.175-5.543z"/></g></g></svg>